<mxfile host="www.draw.io" modified="2023-03-30T00:45:16.869Z" agent="Mozilla/5.0 (Windows NT 10.0; Win64; x64) AppleWebKit/537.36 (KHTML, like Gecko) Chrome/111.0.0.0 Safari/537.36" etag="tQQ_JRG9FTGenGD4ClaF" version="21.1.2" type="device">
  <diagram name="Page-1" id="kZL0UyfsYdWUP2S2Ewr1">
    <mxGraphModel dx="1434" dy="768" grid="1" gridSize="10" guides="1" tooltips="1" connect="1" arrows="1" fold="1" page="1" pageScale="1" pageWidth="850" pageHeight="1100" math="0" shadow="0">
      <root>
        <mxCell id="0" />
        <mxCell id="1" parent="0" />
        <mxCell id="MW2Y4JrI4-YwGHVKbMBb-3" style="edgeStyle=orthogonalEdgeStyle;rounded=0;orthogonalLoop=1;jettySize=auto;html=1;exitX=0.5;exitY=1;exitDx=0;exitDy=0;entryX=0.5;entryY=0;entryDx=0;entryDy=0;" edge="1" parent="1" source="MW2Y4JrI4-YwGHVKbMBb-1" target="MW2Y4JrI4-YwGHVKbMBb-2">
          <mxGeometry relative="1" as="geometry" />
        </mxCell>
        <mxCell id="MW2Y4JrI4-YwGHVKbMBb-1" value="Start" style="rounded=1;whiteSpace=wrap;html=1;" vertex="1" parent="1">
          <mxGeometry x="365" y="30" width="120" height="60" as="geometry" />
        </mxCell>
        <mxCell id="MW2Y4JrI4-YwGHVKbMBb-7" style="edgeStyle=orthogonalEdgeStyle;rounded=0;orthogonalLoop=1;jettySize=auto;html=1;exitX=0.5;exitY=1;exitDx=0;exitDy=0;entryX=0.5;entryY=0;entryDx=0;entryDy=0;" edge="1" parent="1" source="MW2Y4JrI4-YwGHVKbMBb-2" target="MW2Y4JrI4-YwGHVKbMBb-5">
          <mxGeometry relative="1" as="geometry" />
        </mxCell>
        <mxCell id="MW2Y4JrI4-YwGHVKbMBb-8" style="edgeStyle=orthogonalEdgeStyle;rounded=0;orthogonalLoop=1;jettySize=auto;html=1;exitX=0.5;exitY=1;exitDx=0;exitDy=0;" edge="1" parent="1" source="MW2Y4JrI4-YwGHVKbMBb-2" target="MW2Y4JrI4-YwGHVKbMBb-4">
          <mxGeometry relative="1" as="geometry" />
        </mxCell>
        <mxCell id="MW2Y4JrI4-YwGHVKbMBb-9" style="edgeStyle=orthogonalEdgeStyle;rounded=0;orthogonalLoop=1;jettySize=auto;html=1;exitX=0.5;exitY=1;exitDx=0;exitDy=0;entryX=0.5;entryY=0;entryDx=0;entryDy=0;" edge="1" parent="1" source="MW2Y4JrI4-YwGHVKbMBb-2" target="MW2Y4JrI4-YwGHVKbMBb-6">
          <mxGeometry relative="1" as="geometry" />
        </mxCell>
        <mxCell id="MW2Y4JrI4-YwGHVKbMBb-13" style="edgeStyle=orthogonalEdgeStyle;rounded=0;orthogonalLoop=1;jettySize=auto;html=1;exitX=0.5;exitY=1;exitDx=0;exitDy=0;entryX=0.5;entryY=0;entryDx=0;entryDy=0;" edge="1" parent="1" source="MW2Y4JrI4-YwGHVKbMBb-2" target="MW2Y4JrI4-YwGHVKbMBb-12">
          <mxGeometry relative="1" as="geometry" />
        </mxCell>
        <mxCell id="MW2Y4JrI4-YwGHVKbMBb-2" value="Enter Username&lt;br&gt;and Pass" style="rounded=1;whiteSpace=wrap;html=1;" vertex="1" parent="1">
          <mxGeometry x="365" y="130" width="120" height="60" as="geometry" />
        </mxCell>
        <mxCell id="MW2Y4JrI4-YwGHVKbMBb-11" style="edgeStyle=orthogonalEdgeStyle;rounded=0;orthogonalLoop=1;jettySize=auto;html=1;exitX=0.5;exitY=1;exitDx=0;exitDy=0;entryX=0.5;entryY=0;entryDx=0;entryDy=0;" edge="1" parent="1" source="MW2Y4JrI4-YwGHVKbMBb-4" target="MW2Y4JrI4-YwGHVKbMBb-10">
          <mxGeometry relative="1" as="geometry" />
        </mxCell>
        <mxCell id="MW2Y4JrI4-YwGHVKbMBb-4" value="Cant find?" style="rounded=1;whiteSpace=wrap;html=1;" vertex="1" parent="1">
          <mxGeometry x="60" y="230" width="120" height="60" as="geometry" />
        </mxCell>
        <mxCell id="MW2Y4JrI4-YwGHVKbMBb-19" style="edgeStyle=orthogonalEdgeStyle;rounded=0;orthogonalLoop=1;jettySize=auto;html=1;exitX=0.5;exitY=1;exitDx=0;exitDy=0;" edge="1" parent="1" source="MW2Y4JrI4-YwGHVKbMBb-5" target="MW2Y4JrI4-YwGHVKbMBb-20">
          <mxGeometry relative="1" as="geometry">
            <mxPoint x="160" y="560" as="targetPoint" />
          </mxGeometry>
        </mxCell>
        <mxCell id="MW2Y4JrI4-YwGHVKbMBb-5" value="LogIn" style="rounded=1;whiteSpace=wrap;html=1;" vertex="1" parent="1">
          <mxGeometry x="245" y="230" width="120" height="60" as="geometry" />
        </mxCell>
        <mxCell id="MW2Y4JrI4-YwGHVKbMBb-22" style="edgeStyle=orthogonalEdgeStyle;rounded=0;orthogonalLoop=1;jettySize=auto;html=1;exitX=0.5;exitY=1;exitDx=0;exitDy=0;" edge="1" parent="1" source="MW2Y4JrI4-YwGHVKbMBb-6" target="MW2Y4JrI4-YwGHVKbMBb-21">
          <mxGeometry relative="1" as="geometry" />
        </mxCell>
        <mxCell id="MW2Y4JrI4-YwGHVKbMBb-6" value="Admin" style="rounded=1;whiteSpace=wrap;html=1;" vertex="1" parent="1">
          <mxGeometry x="430" y="230" width="120" height="60" as="geometry" />
        </mxCell>
        <mxCell id="MW2Y4JrI4-YwGHVKbMBb-18" style="edgeStyle=orthogonalEdgeStyle;rounded=0;orthogonalLoop=1;jettySize=auto;html=1;exitX=1;exitY=0.5;exitDx=0;exitDy=0;entryX=0;entryY=0.5;entryDx=0;entryDy=0;" edge="1" parent="1" source="MW2Y4JrI4-YwGHVKbMBb-10" target="MW2Y4JrI4-YwGHVKbMBb-5">
          <mxGeometry relative="1" as="geometry" />
        </mxCell>
        <mxCell id="MW2Y4JrI4-YwGHVKbMBb-10" value="Create account" style="rounded=1;whiteSpace=wrap;html=1;" vertex="1" parent="1">
          <mxGeometry x="60" y="340" width="120" height="60" as="geometry" />
        </mxCell>
        <mxCell id="MW2Y4JrI4-YwGHVKbMBb-17" style="edgeStyle=orthogonalEdgeStyle;rounded=0;orthogonalLoop=1;jettySize=auto;html=1;exitX=1;exitY=0.5;exitDx=0;exitDy=0;entryX=1;entryY=0.5;entryDx=0;entryDy=0;" edge="1" parent="1" source="MW2Y4JrI4-YwGHVKbMBb-12" target="MW2Y4JrI4-YwGHVKbMBb-2">
          <mxGeometry relative="1" as="geometry" />
        </mxCell>
        <mxCell id="MW2Y4JrI4-YwGHVKbMBb-12" value="&lt;span style=&quot;color: rgb(0, 0, 0); font-family: Helvetica; font-size: 12px; font-style: normal; font-variant-ligatures: normal; font-variant-caps: normal; font-weight: 400; letter-spacing: normal; orphans: 2; text-align: center; text-indent: 0px; text-transform: none; widows: 2; word-spacing: 0px; -webkit-text-stroke-width: 0px; background-color: rgb(251, 251, 251); text-decoration-thickness: initial; text-decoration-style: initial; text-decoration-color: initial; float: none; display: inline !important;&quot;&gt;Wrong Password?&lt;/span&gt;" style="rounded=1;whiteSpace=wrap;html=1;" vertex="1" parent="1">
          <mxGeometry x="620" y="230" width="120" height="60" as="geometry" />
        </mxCell>
        <mxCell id="MW2Y4JrI4-YwGHVKbMBb-20" value="Prompt Storefront" style="rounded=1;whiteSpace=wrap;html=1;" vertex="1" parent="1">
          <mxGeometry x="100" y="530" width="120" height="60" as="geometry" />
        </mxCell>
        <mxCell id="MW2Y4JrI4-YwGHVKbMBb-21" value="Do Admin stuff" style="rounded=1;whiteSpace=wrap;html=1;" vertex="1" parent="1">
          <mxGeometry x="540" y="520" width="120" height="60" as="geometry" />
        </mxCell>
      </root>
    </mxGraphModel>
  </diagram>
</mxfile>
